<svg width="8" height="5" viewBox="0 0 8 5" fill="none" xmlns="http://www.w3.org/2000/svg">
<path d="M1.31888 0.166656C1.1126 0.166656 0.914767 0.248601 0.768905 0.394462C0.623044 0.540324 0.5411 0.738155 0.5411 0.944434V1.39593L3.82371 3.03743C3.89121 3.07118 3.96564 3.08875 4.0411 3.08875C4.11656 3.08875 4.19099 3.07118 4.25849 3.03743L7.5411 1.39632V0.944434C7.5411 0.738155 7.45916 0.540324 7.31329 0.394462C7.16743 0.248601 6.9696 0.166656 6.76332 0.166656H1.31888Z" fill="#334155"/>
<path d="M7.5411 2.04849L4.51943 3.55933C4.37092 3.6336 4.20715 3.67226 4.0411 3.67226C3.87505 3.67226 3.71128 3.6336 3.56277 3.55933L0.5411 2.04849V4.05555C0.5411 4.26183 0.623044 4.45966 0.768905 4.60552C0.914767 4.75138 1.1126 4.83333 1.31888 4.83333H6.76332C6.9696 4.83333 7.16743 4.75138 7.31329 4.60552C7.45916 4.45966 7.5411 4.26183 7.5411 4.05555V2.04849Z" fill="#334155"/>
</svg>
