<svg width="10" height="9" viewBox="0 0 10 9" fill="none" xmlns="http://www.w3.org/2000/svg">
<path d="M5 8.50024C5.88667 8.50019 6.74821 8.20567 7.44935 7.66292C8.15049 7.12017 8.65152 6.35993 8.87378 5.50158M5 8.50024C4.11334 8.50019 3.2518 8.20567 2.55066 7.66292C1.84951 7.12017 1.34848 6.35993 1.12622 5.50158M5 8.50024C6.10445 8.50024 7 6.70913 7 4.50024C7 2.29136 6.10445 0.500244 5 0.500244M5 8.50024C3.89556 8.50024 3 6.70913 3 4.50024C3 2.29136 3.89556 0.500244 5 0.500244M5 0.500244C5.70944 0.499949 6.40619 0.688403 7.01875 1.04627C7.63132 1.40414 8.13764 1.91854 8.48578 2.53669M5 0.500244C4.29056 0.499949 3.59381 0.688403 2.98125 1.04627C2.36869 1.40414 1.86236 1.91854 1.51422 2.53669M8.48578 2.53669C7.51808 3.37488 6.28024 3.83542 5 3.83358C3.66756 3.83358 2.44889 3.34469 1.51422 2.53669M8.48578 2.53669C8.82394 3.13579 9.0011 3.81229 9 4.50024C9 4.84602 8.956 5.18158 8.87378 5.50158M8.87378 5.50158C7.68852 6.15864 6.3552 6.50237 5 6.50024C3.59467 6.50024 2.27422 6.13802 1.12622 5.50158M1.12622 5.50158C1.04211 5.17445 0.999701 4.83801 1 4.50024C1 3.78691 1.18667 3.11669 1.51422 2.53669" stroke="#7C3AED" stroke-width="0.5" stroke-linecap="round" stroke-linejoin="round"/>
</svg>
