<svg width="9" height="9" viewBox="0 0 9 9" fill="none" xmlns="http://www.w3.org/2000/svg">
<path d="M4.31818 0.598999C2.10818 0.598999 0.318176 2.39 0.318176 4.599C0.318176 6.36667 1.46418 7.86566 3.05318 8.394C3.25318 8.43166 3.32651 8.308 3.32651 8.20166C3.32651 8.10666 3.32318 7.855 3.32151 7.52167C2.20884 7.763 1.97418 6.985 1.97418 6.985C1.79218 6.52333 1.52918 6.4 1.52918 6.4C1.16684 6.152 1.55718 6.157 1.55718 6.157C1.95884 6.185 2.16984 6.569 2.16984 6.569C2.52651 7.18067 3.10618 7.004 3.33484 6.90167C3.37084 6.643 3.47384 6.46667 3.58818 6.36667C2.69984 6.26666 1.76618 5.92267 1.76618 4.39C1.76618 3.95333 1.92118 3.59667 2.17784 3.31667C2.13284 3.21567 1.99784 2.809 2.21284 2.258C2.21284 2.258 2.54784 2.15067 3.31284 2.668C3.63284 2.579 3.97284 2.535 4.31284 2.533C4.65284 2.535 4.99284 2.579 5.31284 2.668C6.07284 2.15067 6.40784 2.258 6.40784 2.258C6.62284 2.809 6.48784 3.21567 6.44784 3.31667C6.70284 3.59667 6.85784 3.95333 6.85784 4.39C6.85784 5.92667 5.92284 6.265 5.03284 6.36333C5.17284 6.48333 5.30284 6.72866 5.30284 7.10333C5.30284 7.63866 5.29784 8.06867 5.29784 8.19867C5.29784 8.30367 5.36784 8.42867 5.57284 8.38867C7.17318 7.864 8.31818 6.364 8.31818 4.599C8.31818 2.39 6.52718 0.598999 4.31818 0.598999Z" fill="#222222"/>
</svg>
