<svg width="7" height="7" viewBox="0 0 7 7" fill="none" xmlns="http://www.w3.org/2000/svg">
<path fill-rule="evenodd" clip-rule="evenodd" d="M3.53146 6.97158L3.53269 6.972C3.6138 7.0074 3.65909 6.99917 3.65909 6.99917C3.65909 6.99917 3.70438 7.0074 3.7859 6.972L3.78672 6.97158L3.78919 6.97035L3.7966 6.96706C3.83568 6.9489 3.87426 6.92968 3.91229 6.90942C3.98887 6.86989 4.09592 6.8106 4.22396 6.73114C4.47923 6.57304 4.81889 6.33343 5.1602 6.00446C5.842 5.34737 6.5411 4.32013 6.5411 2.88201C6.5411 2.50354 6.46655 2.12877 6.32172 1.77911C6.17688 1.42945 5.9646 1.11174 5.69698 0.844121C5.42936 0.576502 5.11165 0.364215 4.76199 0.21938C4.41232 0.0745454 4.03756 0 3.65909 0C3.28062 0 2.90585 0.0745454 2.55619 0.21938C2.20653 0.364215 1.88882 0.576502 1.6212 0.844121C1.35358 1.11174 1.14129 1.42945 0.996457 1.77911C0.851622 2.12877 0.777077 2.50354 0.777077 2.88201C0.777077 4.31972 1.47617 5.34737 2.15838 6.00446C2.44401 6.2788 2.75768 6.52237 3.09421 6.73114C3.22456 6.81208 3.35865 6.88682 3.49605 6.95512L3.52157 6.96706L3.52899 6.97035L3.53146 6.97158ZM3.65909 3.80837C3.90477 3.80837 4.1404 3.71077 4.31412 3.53705C4.48785 3.36332 4.58545 3.1277 4.58545 2.88201C4.58545 2.63632 4.48785 2.4007 4.31412 2.22698C4.1404 2.05325 3.90477 1.95565 3.65909 1.95565C3.4134 1.95565 3.17778 2.05325 3.00405 2.22698C2.83033 2.4007 2.73273 2.63632 2.73273 2.88201C2.73273 3.1277 2.83033 3.36332 3.00405 3.53705C3.17778 3.71077 3.4134 3.80837 3.65909 3.80837Z" fill="#334155"/>
</svg>
