<svg width="9" height="9" viewBox="0 0 9 9" fill="none" xmlns="http://www.w3.org/2000/svg">
<g clip-path="url(#clip0_303_4536)">
<path d="M4.15909 8.50024C6.36822 8.50024 8.15909 6.70938 8.15909 4.50024C8.15909 2.29111 6.36822 0.500244 4.15909 0.500244C1.94995 0.500244 0.159088 2.29111 0.159088 4.50024C0.159088 6.70938 1.94995 8.50024 4.15909 8.50024Z" fill="#34AADF"/>
<path d="M1.82384 4.46556C1.82384 4.46556 3.82384 3.64476 4.51747 3.35573C4.78338 3.24013 5.6851 2.87018 5.6851 2.87018C5.6851 2.87018 6.1013 2.70834 6.06661 3.1014C6.05504 3.26325 5.96256 3.82972 5.87008 4.44244C5.73134 5.30949 5.58106 6.25746 5.58106 6.25746C5.58106 6.25746 5.55794 6.52336 5.36141 6.5696C5.16488 6.61584 4.84117 6.40776 4.78338 6.36151C4.73712 6.32684 3.91632 5.8066 3.61574 5.55226C3.53482 5.4829 3.44234 5.34418 3.6273 5.18232C4.04349 4.80082 4.54059 4.32684 4.84117 4.02626C4.9799 3.88752 5.11862 3.56383 4.54059 3.95688C3.71979 4.52336 2.91054 5.05516 2.91054 5.05516C2.91054 5.05516 2.72557 5.17076 2.37875 5.06671C2.03192 4.96268 1.6273 4.82394 1.6273 4.82394C1.6273 4.82394 1.34986 4.65053 1.82384 4.46556Z" fill="white"/>
</g>
<defs>
<clipPath id="clip0_303_4536">
<rect width="8" height="8" fill="white" transform="translate(0.159088 0.500244)"/>
</clipPath>
</defs>
</svg>
