<svg width="9" height="9" viewBox="0 0 9 9" fill="none" xmlns="http://www.w3.org/2000/svg">
<mask id="mask0_303_4119" style="mask-type:luminance" maskUnits="userSpaceOnUse" x="0" y="0" width="9" height="9">
<path d="M8.25429 0.500031H0.333496V8.50003H8.25429V0.500031Z" fill="white"/>
</mask>
<g mask="url(#mask0_303_4119)">
<path fill-rule="evenodd" clip-rule="evenodd" d="M0.890283 1.06239C0.333496 1.62474 0.333496 2.52984 0.333496 4.34003V4.66003C0.333496 6.47022 0.333496 7.37532 0.890283 7.93768C1.44707 8.50003 2.34321 8.50003 4.13548 8.50003H4.45231C6.24458 8.50003 7.14071 8.50003 7.6975 7.93768C8.25429 7.37532 8.25429 6.47022 8.25429 4.66003V4.34003C8.25429 2.52984 8.25429 1.62474 7.6975 1.06239C7.14071 0.500031 6.24458 0.500031 4.45231 0.500031H4.13548C2.34321 0.500031 1.44707 0.500031 0.890283 1.06239ZM1.67015 2.93338C1.71304 5.01338 2.74274 6.26337 4.54802 6.26337H4.65035V5.07337C5.31372 5.14004 5.81533 5.63005 6.01665 6.26337H6.95397C6.69655 5.31671 6.01994 4.79337 5.5975 4.59337C6.01994 4.34671 6.61401 3.74671 6.75592 2.93338H5.90441C5.71959 3.59338 5.1718 4.19337 4.65035 4.25004V2.93338H3.79883V5.24004C3.27079 5.10671 2.60413 4.46005 2.57443 2.93338H1.67015Z" fill="#0077FF"/>
</g>
</svg>
